<?xml version="1.0" encoding="UTF-8"?>
<svg version="1.1" xmlns="http://www.w3.org/2000/svg" width="336" height="323">
<path d="M0 0 C11.55 0 23.1 0 35 0 C35 0.66 35 1.32 35 2 C35.804375 1.979375 36.60875 1.95875 37.4375 1.9375 C40 2 40 2 41 3 C42.53851559 3.15915679 44.08137761 3.27706625 45.625 3.375 C50.37820772 3.7959984 53.72168151 4.94640712 58 7 C59.32276056 7.37308631 60.65232077 7.73046415 62 8 C62 8.66 62 9.32 62 10 C63.175625 10.2165625 63.175625 10.2165625 64.375 10.4375 C67 11 67 11 69 12 C69 12.66 69 13.32 69 14 C70.32 14 71.64 14 73 14 C73 14.66 73 15.32 73 16 C74.32 16 75.64 16 77 16 C77.33 17.32 77.66 18.64 78 20 C78.66 20 79.32 20 80 20 C80 20.66 80 21.32 80 22 C80.99 22 81.98 22 83 22 C83 22.66 83 23.32 83 24 C83.66 24 84.32 24 85 24 C85 24.66 85 25.32 85 26 C85.804375 26.0928125 85.804375 26.0928125 86.625 26.1875 C90.04593411 27.35781957 92.60717906 29.33974614 95 32 C96.375 35.3125 96.375 35.3125 97 38 C97.66 38 98.32 38 99 38 C99 38.66 99 39.32 99 40 C99.66 40 100.32 40 101 40 C101 41.32 101 42.64 101 44 C101.66 44 102.32 44 103 44 C103 44.66 103 45.32 103 46 C103.66 46 104.32 46 105 46 C105 47.32 105 48.64 105 50 C105.66 50 106.32 50 107 50 C107.103125 50.639375 107.20625 51.27875 107.3125 51.9375 C107.539375 52.618125 107.76625 53.29875 108 54 C108.99 54.33 109.98 54.66 111 55 C112.70533217 58.32091002 113 60.18492784 113 64 C113.66 64 114.32 64 115 64 C115.30744141 65.17369141 115.30744141 65.17369141 115.62109375 66.37109375 C115.89050781 67.38300781 116.15992188 68.39492187 116.4375 69.4375 C116.70433594 70.44683594 116.97117188 71.45617187 117.24609375 72.49609375 C117.75978077 74.91752001 117.75978077 74.91752001 119 76 C121.13494505 84.6902958 121.31333466 93.45506489 121.26074219 102.34521484 C121.25001318 104.49735674 121.26070598 106.64866433 121.2734375 108.80078125 C121.28404015 119.51622278 120.26140246 129.74987799 117 140 C116.34 140 115.68 140 115 140 C115 141.32 115 142.64 115 144 C114.34 144 113.68 144 113 144 C112.855625 144.763125 112.71125 145.52625 112.5625 146.3125 C112 149 112 149 111 152 C110.34 152 109.68 152 109 152 C108.01 155.96 108.01 155.96 107 160 C106.34 160 105.68 160 105 160 C105 160.66 105 161.32 105 162 C104.34 162 103.68 162 103 162 C103 162.66 103 163.32 103 164 C102.34 164 101.68 164 101 164 C101 165.32 101 166.64 101 168 C100.34 168 99.68 168 99 168 C99 168.66 99 169.32 99 170 C98.34 170 97.68 170 97 170 C96.01 172.97 96.01 172.97 95 176 C94.01 176 93.02 176 92 176 C92 176.66 92 177.32 92 178 C91.01 178 90.02 178 89 178 C89 179.32 89 180.64 89 182 C87.68 182 86.36 182 85 182 C85 182.66 85 183.32 85 184 C84.34 184 83.68 184 83 184 C83 184.66 83 185.32 83 186 C82.34 186 81.68 186 81 186 C81 186.66 81 187.32 81 188 C80.01 188 79.02 188 78 188 C78 188.66 78 189.32 78 190 C77.34 190 76.68 190 76 190 C76 190.66 76 191.32 76 192 C75.01 192 74.02 192 73 192 C73 192.66 73 193.32 73 194 C70 196 70 196 66 196 C66 196.66 66 197.32 66 198 C64.35 198 62.7 198 61 198 C61 198.66 61 199.32 61 200 C59.35 200 57.7 200 56 200 C56 200.66 56 201.32 56 202 C52.62902617 203.49821059 50.79557881 204 47 204 C47 204.66 47 205.32 47 206 C44.03 206 41.06 206 38 206 C38 206.66 38 207.32 38 208 C35.36 208 32.72 208 30 208 C30 208.66 30 209.32 30 210 C21.75 210 13.5 210 5 210 C5 209.34 5 208.68 5 208 C2.36 208 -0.28 208 -3 208 C-3 207.34 -3 206.68 -3 206 C-4.19625 206.04125 -5.3925 206.0825 -6.625 206.125 C-10.42329953 206.13851708 -13.44975618 205.42009753 -17 204 C-17 203.34 -17 202.68 -17 202 C-17.721875 201.855625 -18.44375 201.71125 -19.1875 201.5625 C-21.79166667 201.04166667 -24.39583333 200.52083333 -27 200 C-27 199.34 -27 198.68 -27 198 C-28.32 198 -29.64 198 -31 198 C-31 197.34 -31 196.68 -31 196 C-31.5775 195.855625 -32.155 195.71125 -32.75 195.5625 C-34.83333333 195.04166667 -36.91666667 194.52083333 -39 194 C-39 193.34 -39 192.68 -39 192 C-39.66 192 -40.32 192 -41 192 C-41 191.34 -41 190.68 -41 190 C-41.99 190 -42.98 190 -44 190 C-46.1875 188.125 -46.1875 188.125 -48 186 C-48 185.34 -48 184.68 -48 184 C-49.65 183.34 -51.3 182.68 -53 182 C-53 181.34 -53 180.68 -53 180 C-53.66 180 -54.32 180 -55 180 C-55 179.34 -55 178.68 -55 178 C-55.66 178 -56.32 178 -57 178 C-57 177.34 -57 176.68 -57 176 C-57.66 176 -58.32 176 -59 176 C-59 175.34 -59 174.68 -59 174 C-59.66 174 -60.32 174 -61 174 C-61 173.34 -61 172.68 -61 172 C-61.66 172 -62.32 172 -63 172 C-63.103125 171.360625 -63.20625 170.72125 -63.3125 170.0625 C-63.539375 169.381875 -63.76625 168.70125 -64 168 C-64.99 167.67 -65.98 167.34 -67 167 C-68.1875 163.4375 -68.1875 163.4375 -69 160 C-69.66 160 -70.32 160 -71 160 C-71 158.68 -71 157.36 -71 156 C-71.66 156 -72.32 156 -73 156 C-73 154.68 -73 153.36 -73 152 C-73.66 152 -74.32 152 -75 152 C-75 151.34 -75 150.68 -75 150 C-75.66 150 -76.32 150 -77 150 C-77 148.68 -77 147.36 -77 146 C-77.66 146 -78.32 146 -79 146 C-79 144.02 -79 142.04 -79 140 C-79.66 140 -80.32 140 -81 140 C-84.54067914 131.65411346 -85.26727999 125.04297305 -85 116 C-85.66 116 -86.32 116 -87 116 C-87.02886984 112.02084841 -87.04675406 108.04172347 -87.0625 104.0625 C-87.07087891 102.92619141 -87.07925781 101.78988281 -87.08789062 100.61914062 C-87.09111328 99.53955078 -87.09433594 98.45996094 -87.09765625 97.34765625 C-87.10289307 96.34742432 -87.10812988 95.34719238 -87.11352539 94.31665039 C-87 92 -87 92 -86 91 C-85.8136017 89.31649791 -85.67640347 87.62745551 -85.5625 85.9375 C-85.16932195 81.07984856 -84.32540742 76.68310622 -83 72 C-82.34 72 -81.68 72 -81 72 C-81 70.68 -81 69.36 -81 68 C-80.34 68 -79.68 68 -79 68 C-78.7834375 66.9171875 -78.7834375 66.9171875 -78.5625 65.8125 C-78.04166667 63.20833333 -77.52083333 60.60416667 -77 58 C-76.34 58 -75.68 58 -75 58 C-74.34 56.02 -73.68 54.04 -73 52 C-72.34 52 -71.68 52 -71 52 C-71 50.68 -71 49.36 -71 48 C-70.34 48 -69.68 48 -69 48 C-68.9175 47.46375 -68.835 46.9275 -68.75 46.375 C-67.72843427 43.14004185 -65.94198797 40.77426852 -64 38 C-63.34 36.9275 -62.68 35.855 -62 34.75 C-59.976592 31.967814 -59.02874943 31.32507787 -56 30 C-55.319375 29.29875 -54.63875 28.5975 -53.9375 27.875 C-52 26 -52 26 -49 26 C-48.34 24.68 -47.68 23.36 -47 22 C-46.34 22 -45.68 22 -45 22 C-45 21.34 -45 20.68 -45 20 C-44.34 20 -43.68 20 -43 20 C-43 19.34 -43 18.68 -43 18 C-41.35 17.34 -39.7 16.68 -38 16 C-38 15.34 -38 14.68 -38 14 C-36.68 14 -35.36 14 -34 14 C-34 13.34 -34 12.68 -34 12 C-33.34 12 -32.68 12 -32 12 C-32 11.34 -32 10.68 -32 10 C-30.35 10 -28.7 10 -27 10 C-27 9.34 -27 8.68 -27 8 C-25.35 8 -23.7 8 -22 8 C-22 7.34 -22 6.68 -22 6 C-16.35600642 3.55935413 -11.02248522 3.80710901 -5 4 C-5 3.34 -5 2.68 -5 2 C-3.35 2 -1.7 2 0 2 C0 1.34 0 0.68 0 0 Z M16 52 C16 52.66 16 53.32 16 54 C15.1646875 53.94779297 15.1646875 53.94779297 14.3125 53.89453125 C8.49752413 53.68825677 4.27481733 54.62953553 -1 57 C-2.33324822 57.56270172 -3.66657678 58.1252131 -5 58.6875 C-5.99 59.120625 -6.98 59.55375 -8 60 C-8 60.66 -8 61.32 -8 62 C-8.99 62 -9.98 62 -11 62 C-11 62.66 -11 63.32 -11 64 C-11.99 64 -12.98 64 -14 64 C-14 64.66 -14 65.32 -14 66 C-14.66 66 -15.32 66 -16 66 C-16 66.66 -16 67.32 -16 68 C-16.99 68 -17.98 68 -19 68 C-19 68.66 -19 69.32 -19 70 C-19.66 70 -20.32 70 -21 70 C-21 71.32 -21 72.64 -21 74 C-21.61875 74.2475 -22.2375 74.495 -22.875 74.75 C-25.41530728 76.2442984 -26.02864183 77.24781851 -27 80 C-27 81.32 -27 82.64 -27 84 C-27.66 84 -28.32 84 -29 84 C-29.144375 85.134375 -29.28875 86.26875 -29.4375 87.4375 C-30 91 -30 91 -31 92 C-31.25531383 95.65935522 -31.18524466 99.3328139 -31.1875 103 C-31.19974609 104.01707031 -31.21199219 105.03414062 -31.22460938 106.08203125 C-31.23672805 112.37566278 -30.60453544 117.91164419 -29 124 C-28.34 124 -27.68 124 -27 124 C-27.04125 124.763125 -27.0825 125.52625 -27.125 126.3125 C-27.22080824 129.22718416 -27.22080824 129.22718416 -25 132 C-24.34 132 -23.68 132 -23 132 C-23 132.66 -23 133.32 -23 134 C-22.34 134 -21.68 134 -21 134 C-20.731875 134.804375 -20.46375 135.60875 -20.1875 136.4375 C-19.795625 137.283125 -19.40375 138.12875 -19 139 C-18.01 139.33 -17.02 139.66 -16 140 C-16 140.66 -16 141.32 -16 142 C-14.35 142.66 -12.7 143.32 -11 144 C-11 144.66 -11 145.32 -11 146 C-10.34 146 -9.68 146 -9 146 C-9 146.66 -9 147.32 -9 148 C-7.68 148 -6.36 148 -5 148 C-5 148.66 -5 149.32 -5 150 C-1.5647952 152.29013653 -0.014669 152.17842973 4 152 C4 152.66 4 153.32 4 154 C12.91 154 21.82 154 31 154 C31 153.34 31 152.68 31 152 C32.98 152 34.96 152 37 152 C37 151.34 37 150.68 37 150 C37.53625 149.896875 38.0725 149.79375 38.625 149.6875 C41.62502044 148.81907303 44.2379535 147.44379704 47 146 C47 145.34 47 144.68 47 144 C47.66 144 48.32 144 49 144 C49 143.34 49 142.68 49 142 C49.804375 141.7525 50.60875 141.505 51.4375 141.25 C52.283125 140.8375 53.12875 140.425 54 140 C54.65213292 137.97536745 54.65213292 137.97536745 55 136 C55.99 135.67 56.98 135.34 58 135 C59.88579937 131.78715662 61 129.75366417 61 126 C61.66 126 62.32 126 63 126 C64.97094808 121.07262981 65.1799928 117.21979128 65 112 C65.66 112 66.32 112 67 112 C67 106.72 67 101.44 67 96 C66.34 96 65.68 96 65 96 C65.103125 94.88625 65.20625 93.7725 65.3125 92.625 C65.34679714 87.80625245 63.50434272 84.43512031 61.19140625 80.296875 C60.08904407 78.17166528 59.46615512 76.33613368 59 74 C58.34 74 57.68 74 57 74 C57 73.34 57 72.68 57 72 C56.34 72 55.68 72 55 72 C55 70.68 55 69.36 55 68 C54.2575 67.7525 53.515 67.505 52.75 67.25 C49.76911179 65.89505081 48.25748021 64.33030215 46 62 C44.67432801 61.31822584 43.34246312 60.64808564 42 60 C41.505 59.01 41.505 59.01 41 58 C39.35 58 37.7 58 36 58 C36 57.34 36 56.68 36 56 C33.69 56 31.38 56 29 56 C29 55.34 29 54.68 29 54 C28.39671875 53.93941406 27.7934375 53.87882812 27.171875 53.81640625 C26.37265625 53.73261719 25.5734375 53.64882812 24.75 53.5625 C23.56664062 53.44068359 23.56664062 53.44068359 22.359375 53.31640625 C20.17635361 53.02365007 18.1226818 52.57935581 16 52 Z " fill="#F9F9F9" transform="translate(120,89)"/>
<path d="M0 0 C5.5373041 0.03032478 9.03316152 0.674554 13.875 3.25 C15.19776056 3.62308631 16.52732077 3.98046415 17.875 4.25 C18.37 6.23 18.37 6.23 18.875 8.25 C20.195 8.58 21.515 8.91 22.875 9.25 C22.875 10.24 22.875 11.23 22.875 12.25 C23.535 12.25 24.195 12.25 24.875 12.25 C24.875 12.91 24.875 13.57 24.875 14.25 C25.535 14.25 26.195 14.25 26.875 14.25 C26.875 14.91 26.875 15.57 26.875 16.25 C27.535 16.25 28.195 16.25 28.875 16.25 C29.07996094 16.81589844 29.28492188 17.38179687 29.49609375 17.96484375 C29.76550781 18.69832031 30.03492188 19.43179688 30.3125 20.1875 C30.57933594 20.91839844 30.84617187 21.64929688 31.12109375 22.40234375 C31.72886948 24.23305678 31.72886948 24.23305678 32.875 25.25 C33.00242684 27.84595152 33.06021437 30.40352058 33.0625 33 C33.07474609 33.71671875 33.08699219 34.4334375 33.09960938 35.171875 C33.1110447 39.31908708 32.7307613 42.52380735 30.875 46.25 C30.215 46.25 29.555 46.25 28.875 46.25 C28.730625 47.013125 28.58625 47.77625 28.4375 48.5625 C27.875 51.25 27.875 51.25 26.875 54.25 C26.215 54.25 25.555 54.25 24.875 54.25 C24.875 54.91 24.875 55.57 24.875 56.25 C24.215 56.25 23.555 56.25 22.875 56.25 C22.545 57.57 22.215 58.89 21.875 60.25 C20.885 60.25 19.895 60.25 18.875 60.25 C18.6275 61.19875 18.38 62.1475 18.125 63.125 C16.70178531 66.68303673 16.18393663 66.80234022 12.875 68.25 C11.60695434 70.2835948 11.60695434 70.2835948 10.875 72.25 C9.885 72.25 8.895 72.25 7.875 72.25 C7.875 72.91 7.875 73.57 7.875 74.25 C6.885 74.25 5.895 74.25 4.875 74.25 C4.38 76.23 4.38 76.23 3.875 78.25 C3.215 78.25 2.555 78.25 1.875 78.25 C1.50375 79.11625 1.50375 79.11625 1.125 80 C-0.31597397 82.59375315 -1.96722053 84.21552222 -4.125 86.25 C-4.929375 87.054375 -5.73375 87.85875 -6.5625 88.6875 C-10.34375 92.46875 -10.34375 92.46875 -14.125 96.25 C-15.424375 97.61125 -15.424375 97.61125 -16.75 99 C-19.125 101.25 -19.125 101.25 -22.125 102.25 C-22.125 102.91 -22.125 103.57 -22.125 104.25 C-25.63276784 105.85355101 -28.26854879 106.47036864 -32.125 106.25 C-32.125 106.91 -32.125 107.57 -32.125 108.25 C-34.6669589 108.30434116 -37.20773682 108.3438339 -39.75 108.375 C-40.46285156 108.39175781 -41.17570312 108.40851563 -41.91015625 108.42578125 C-46.3862164 108.46684602 -49.90449278 107.94086567 -54.125 106.25 C-54.125 105.59 -54.125 104.93 -54.125 104.25 C-55.445 104.25 -56.765 104.25 -58.125 104.25 C-58.125 103.59 -58.125 102.93 -58.125 102.25 C-59.115 102.25 -60.105 102.25 -61.125 102.25 C-61.125 101.59 -61.125 100.93 -61.125 100.25 C-61.785 100.25 -62.445 100.25 -63.125 100.25 C-63.125 99.59 -63.125 98.93 -63.125 98.25 C-63.785 98.25 -64.445 98.25 -65.125 98.25 C-65.125 97.59 -65.125 96.93 -65.125 96.25 C-65.785 96.25 -66.445 96.25 -67.125 96.25 C-69.2769437 93.02208445 -69.32586443 91.96599191 -69.125 88.25 C-69.785 88.25 -70.445 88.25 -71.125 88.25 C-71.125 86.93 -71.125 85.61 -71.125 84.25 C-71.785 84.25 -72.445 84.25 -73.125 84.25 C-73.17907567 81.66638482 -73.218707 79.08390745 -73.25 76.5 C-73.26675781 75.77039063 -73.28351563 75.04078125 -73.30078125 74.2890625 C-73.33572239 70.4455376 -73.29999684 67.50393228 -71.125 64.25 C-70.465 64.25 -69.805 64.25 -69.125 64.25 C-69.125 62.27 -69.125 60.29 -69.125 58.25 C-68.465 58.25 -67.805 58.25 -67.125 58.25 C-67.125 57.59 -67.125 56.93 -67.125 56.25 C-66.465 56.25 -65.805 56.25 -65.125 56.25 C-65.125 55.59 -65.125 54.93 -65.125 54.25 C-64.465 54.25 -63.805 54.25 -63.125 54.25 C-63.125 53.59 -63.125 52.93 -63.125 52.25 C-62.465 52.25 -61.805 52.25 -61.125 52.25 C-60.465 50.93 -59.805 49.61 -59.125 48.25 C-58.465 48.25 -57.805 48.25 -57.125 48.25 C-56.980625 47.63125 -56.83625 47.0125 -56.6875 46.375 C-56.125 44.25 -56.125 44.25 -55.125 42.25 C-53.64 41.755 -53.64 41.755 -52.125 41.25 C-51.795 40.26 -51.465 39.27 -51.125 38.25 C-49.805 38.25 -48.485 38.25 -47.125 38.25 C-46.8775 37.30125 -46.63 36.3525 -46.375 35.375 C-44.95178531 31.81696327 -44.43393663 31.69765978 -41.125 30.25 C-39.85695434 28.2164052 -39.85695434 28.2164052 -39.125 26.25 C-38.135 26.25 -37.145 26.25 -36.125 26.25 C-35.856875 25.445625 -35.58875 24.64125 -35.3125 23.8125 C-34.7246875 22.5440625 -34.7246875 22.5440625 -34.125 21.25 C-33.135 20.92 -32.145 20.59 -31.125 20.25 C-31.125 19.59 -31.125 18.93 -31.125 18.25 C-30.465 18.25 -29.805 18.25 -29.125 18.25 C-29.125 17.59 -29.125 16.93 -29.125 16.25 C-28.465 16.25 -27.805 16.25 -27.125 16.25 C-27.125 15.59 -27.125 14.93 -27.125 14.25 C-26.465 14.25 -25.805 14.25 -25.125 14.25 C-25.125 13.59 -25.125 12.93 -25.125 12.25 C-24.465 12.25 -23.805 12.25 -23.125 12.25 C-23.125 11.59 -23.125 10.93 -23.125 10.25 C-22.320625 10.0025 -21.51625 9.755 -20.6875 9.5 C-19.841875 9.0875 -18.99625 8.675 -18.125 8.25 C-18.01027344 7.59902344 -17.89554687 6.94804687 -17.77734375 6.27734375 C-17.56207031 5.60832031 -17.34679687 4.93929688 -17.125 4.25 C-14.875 3.23828125 -14.875 3.23828125 -12.125 2.5625 C-2.16305963 0.02956346 -2.16305963 0.02956346 0 0 Z " fill="#F6F6F6" transform="translate(280.125,12.75)"/>
<path d="M0 0 C0.66 0 1.32 0 2 0 C2.103125 0.639375 2.20625 1.27875 2.3125 1.9375 C2.6528125 2.9584375 2.6528125 2.9584375 3 4 C3.99 4.33 4.98 4.66 6 5 C7.70533217 8.32091002 8 10.18492784 8 14 C8.66 14 9.32 14 10 14 C10.20496094 14.78246094 10.40992188 15.56492188 10.62109375 16.37109375 C10.89050781 17.38300781 11.15992188 18.39492187 11.4375 19.4375 C11.70433594 20.44683594 11.97117188 21.45617187 12.24609375 22.49609375 C12.75978077 24.91752001 12.75978077 24.91752001 14 26 C16.13494505 34.6902958 16.31333466 43.45506489 16.26074219 52.34521484 C16.25001318 54.49735674 16.26070598 56.64866433 16.2734375 58.80078125 C16.28404015 69.51622278 15.26140246 79.74987799 12 90 C11.34 90 10.68 90 10 90 C10 91.32 10 92.64 10 94 C9.34 94 8.68 94 8 94 C7.855625 94.763125 7.71125 95.52625 7.5625 96.3125 C7 99 7 99 6 102 C5.34 102 4.68 102 4 102 C3.34 104.64 2.68 107.28 2 110 C1.34 110 0.68 110 0 110 C0 110.66 0 111.32 0 112 C-0.66 112 -1.32 112 -2 112 C-2 112.66 -2 113.32 -2 114 C-2.66 114 -3.32 114 -4 114 C-4 115.32 -4 116.64 -4 118 C-4.66 118 -5.32 118 -6 118 C-6 118.66 -6 119.32 -6 120 C-6.66 120 -7.32 120 -8 120 C-8.66 121.98 -9.32 123.96 -10 126 C-10.99 126 -11.98 126 -13 126 C-13 126.66 -13 127.32 -13 128 C-13.99 127.67 -14.98 127.34 -16 127 C-15.39865234 126.35998047 -15.39865234 126.35998047 -14.78515625 125.70703125 C-4.51952075 114.41716001 3.92612587 101.42048436 9 87 C9.33 86.67 9.66 86.34 10 86 C10.24766531 83.64717956 10.38344181 81.29510007 10.5234375 78.93359375 C11 76 11 76 12.515625 72.52734375 C14.84394253 66.58894399 14.43463054 60.41270897 14.375 54.125 C14.38660156 52.90941406 14.39820313 51.69382813 14.41015625 50.44140625 C14.3862191 43.04482638 13.41747877 36.95786265 11 30 C10.63110721 28.23623133 10.28702015 26.46642699 10 24.6875 C9.27066571 20.83159332 8.15239079 18.31137044 6 15 C4.57621092 11.70164692 3.29336436 8.35122748 2 5 C1.3353303 3.33253594 0.66922998 1.66563905 0 0 Z " fill="#141212" transform="translate(225,139)"/>
<path d="M0 0 C0.66 0 1.32 0 2 0 C2.20496094 0.56589844 2.40992188 1.13179687 2.62109375 1.71484375 C2.89050781 2.44832031 3.15992188 3.18179688 3.4375 3.9375 C3.70433594 4.66839844 3.97117187 5.39929687 4.24609375 6.15234375 C4.85386948 7.98305678 4.85386948 7.98305678 6 9 C6.12742684 11.59595152 6.18521437 14.15352058 6.1875 16.75 C6.19974609 17.46671875 6.21199219 18.1834375 6.22460938 18.921875 C6.2360447 23.06908708 5.8557613 26.27380735 4 30 C3.34 30 2.68 30 2 30 C1.855625 30.763125 1.71125 31.52625 1.5625 32.3125 C1 35 1 35 0 38 C-0.66 38 -1.32 38 -2 38 C-2 38.66 -2 39.32 -2 40 C-2.66 40 -3.32 40 -4 40 C-4.33 41.32 -4.66 42.64 -5 44 C-5.99 44 -6.98 44 -8 44 C-8.2475 44.94875 -8.495 45.8975 -8.75 46.875 C-10.17321469 50.43303673 -10.69106337 50.55234022 -14 52 C-15.26804566 54.0335948 -15.26804566 54.0335948 -16 56 C-16.99 56 -17.98 56 -19 56 C-19 56.66 -19 57.32 -19 58 C-19.99 58 -20.98 58 -22 58 C-22.33 59.32 -22.66 60.64 -23 62 C-23.66 62 -24.32 62 -25 62 C-25.2475 62.5775 -25.495 63.155 -25.75 63.75 C-27.19097397 66.34375315 -28.84222053 67.96552222 -31 70 C-31.804375 70.804375 -32.60875 71.60875 -33.4375 72.4375 C-37.21875 76.21875 -37.21875 76.21875 -41 80 C-41.86625 80.9075 -42.7325 81.815 -43.625 82.75 C-46 85 -46 85 -49 86 C-49 86.66 -49 87.32 -49 88 C-50.32 87.67 -51.64 87.34 -53 87 C-52.12988281 86.36384766 -52.12988281 86.36384766 -51.2421875 85.71484375 C-46.81395817 82.3900181 -42.92311995 79.12493574 -39.484375 74.7734375 C-37.46833938 72.36480547 -35.22429227 70.21800008 -33 68 C-30.00633693 64.83360784 -27.05208292 61.6300983 -24.08984375 58.43432617 C-20.26990775 54.3401549 -16.36117168 50.39414008 -12.30102539 46.5390625 C-4.17303487 38.74712147 3.0642967 30.93082907 3.60791016 19.04467773 C3.65918902 13.09706201 2.73497426 9.25787832 0 4 C0 2.68 0 1.36 0 0 Z " fill="#191819" transform="translate(307,29)"/>
<path d="M0 0 C0 0.66 0 1.32 0 2 C-0.556875 2.03738281 -1.11375 2.07476562 -1.6875 2.11328125 C-6.51580408 2.52923312 -10.58981331 3.39898979 -15.0703125 5.234375 C-17.98789586 6.39195868 -20.97220678 7.17997267 -24 8 C-24 8.66 -24 9.32 -24 10 C-24.99 10 -25.98 10 -27 10 C-27 10.66 -27 11.32 -27 12 C-27.99 12 -28.98 12 -30 12 C-30 12.66 -30 13.32 -30 14 C-30.66 14 -31.32 14 -32 14 C-32 14.66 -32 15.32 -32 16 C-32.99 16 -33.98 16 -35 16 C-35 16.66 -35 17.32 -35 18 C-35.66 18 -36.32 18 -37 18 C-37 19.32 -37 20.64 -37 22 C-37.99 22.66 -38.98 23.32 -40 24 C-41.00168531 25.94832935 -41.00168531 25.94832935 -41.6875 28.125 C-41.93886719 28.84945312 -42.19023438 29.57390625 -42.44921875 30.3203125 C-42.63097656 30.87460938 -42.81273438 31.42890625 -43 32 C-43.66 32 -44.32 32 -45 32 C-44.979375 33.134375 -44.95875 34.26875 -44.9375 35.4375 C-45 39 -45 39 -46 40 C-46.09934776 41.68385075 -46.1308005 43.37181597 -46.1328125 45.05859375 C-46.13474609 46.59676758 -46.13474609 46.59676758 -46.13671875 48.16601562 C-46.13285156 49.24560547 -46.12898438 50.32519531 -46.125 51.4375 C-46.12886719 52.51322266 -46.13273437 53.58894531 -46.13671875 54.69726562 C-46.13542969 55.72400391 -46.13414063 56.75074219 -46.1328125 57.80859375 C-46.13168457 58.75532959 -46.13055664 59.70206543 -46.12939453 60.67749023 C-46.15264716 63.02534473 -46.15264716 63.02534473 -45 65 C-44.95977609 67.3329866 -44.95679753 69.66706666 -45 72 C-50.76585948 65.70997147 -50.44071869 57.06134779 -50.3125 49.015625 C-49.6894956 38.3518663 -46.18102826 28.68046045 -40 20 C-39.38125 19.0925 -38.7625 18.185 -38.125 17.25 C-35.07968047 14.02554403 -31.60432925 11.5648785 -28 9 C-27.06027344 8.29617187 -27.06027344 8.29617187 -26.1015625 7.578125 C-22.84454718 5.16025337 -19.89462781 3.26575404 -16 2 C-14.9275 1.62875 -13.855 1.2575 -12.75 0.875 C-8.39598229 -0.14093747 -4.44281949 -0.18133957 0 0 Z " fill="#1E2021" transform="translate(136,141)"/>
<path d="M0 0 C0.33 0 0.66 0 1 0 C0.99214478 1.6857312 0.99214478 1.6857312 0.98413086 3.40551758 C0.96586569 7.62311997 0.95449028 11.84071896 0.94506836 16.05834961 C0.94007689 17.87476186 0.93328136 19.69117018 0.92456055 21.50756836 C0.54396939 40.13172783 0.54396939 40.13172783 5 58 C5 59.32 5 60.64 5 62 C4.34 62 3.68 62 3 62 C-0.54067914 53.65411346 -1.26727999 47.04297305 -1 38 C-1.66 38 -2.32 38 -3 38 C-3.02886984 34.02084841 -3.04675406 30.04172347 -3.0625 26.0625 C-3.07087891 24.92619141 -3.07925781 23.78988281 -3.08789062 22.61914062 C-3.09111328 21.53955078 -3.09433594 20.45996094 -3.09765625 19.34765625 C-3.10289307 18.34742432 -3.10812988 17.34719238 -3.11352539 16.31665039 C-3 14 -3 14 -2 13 C-1.79103683 11.19188816 -1.63219639 9.37783968 -1.5 7.5625 C-1.10992366 2.21984733 -1.10992366 2.21984733 0 0 Z " fill="#3D3B3D" transform="translate(36,167)"/>
<path d="M0 0 C0.78117187 0.01804687 1.56234375 0.03609375 2.3671875 0.0546875 C2.94726562 0.07789063 3.52734375 0.10109375 4.125 0.125 C4.125 0.785 4.125 1.445 4.125 2.125 C1.155 2.125 -1.815 2.125 -4.875 2.125 C-4.875 2.785 -4.875 3.445 -4.875 4.125 C-7.515 4.125 -10.155 4.125 -12.875 4.125 C-12.875 4.785 -12.875 5.445 -12.875 6.125 C-21.125 6.125 -29.375 6.125 -37.875 6.125 C-37.875 5.465 -37.875 4.805 -37.875 4.125 C-40.515 4.125 -43.155 4.125 -45.875 4.125 C-45.875 3.465 -45.875 2.805 -45.875 2.125 C-44.33175049 2.14071045 -44.33175049 2.14071045 -42.75732422 2.15673828 C-38.92191072 2.19307599 -35.0865123 2.21595038 -31.25097656 2.23486328 C-29.59437497 2.24488957 -27.93779093 2.25851406 -26.28125 2.27587891 C-23.89318495 2.30027621 -21.50535492 2.31151694 -19.1171875 2.3203125 C-18.38257294 2.33063507 -17.64795837 2.34095764 -16.89108276 2.35159302 C-10.93199634 2.3528785 -5.86540026 -0.1777394 0 0 Z " fill="#3A3D44" transform="translate(162.875,292.875)"/>
<path d="M0 0 C0.66 0 1.32 0 2 0 C2.103125 0.639375 2.20625 1.27875 2.3125 1.9375 C2.539375 2.618125 2.76625 3.29875 3 4 C3.99 4.33 4.98 4.66 6 5 C7.70533217 8.32091002 8 10.18492784 8 14 C8.66 14 9.32 14 10 14 C10.20496094 14.78246094 10.40992188 15.56492188 10.62109375 16.37109375 C10.89050781 17.38300781 11.15992188 18.39492187 11.4375 19.4375 C11.70433594 20.44683594 11.97117188 21.45617187 12.24609375 22.49609375 C12.75978077 24.91752001 12.75978077 24.91752001 14 26 C16.42375738 35.66381275 16.23879211 45.3758507 16.125 55.25 C16.11494089 56.78515035 16.10582027 58.32030715 16.09765625 59.85546875 C16.07589619 63.57044927 16.04153134 67.28518161 16 71 C15.01 71.495 15.01 71.495 14 72 C14.01571045 71.08299316 14.0314209 70.16598633 14.04760742 69.22119141 C14.09916391 65.77321559 14.13655554 62.3256577 14.16479492 58.87744141 C14.17975184 57.39365111 14.20012495 55.90990401 14.22631836 54.42626953 C14.37502072 45.77820647 14.00863538 38.21514739 11 30 C10.63110721 28.23623133 10.28702015 26.46642699 10 24.6875 C9.27066571 20.83159332 8.15239079 18.31137044 6 15 C4.57621092 11.70164692 3.29336436 8.35122748 2 5 C1.3353303 3.33253594 0.66922998 1.66563905 0 0 Z " fill="#070507" transform="translate(225,139)"/>
<path d="M0 0 C0.5625 1.9375 0.5625 1.9375 1 4 C0.67 4.33 0.34 4.66 0 5 C-0.09934776 6.68385075 -0.1308005 8.37181597 -0.1328125 10.05859375 C-0.13474609 11.59676758 -0.13474609 11.59676758 -0.13671875 13.16601562 C-0.13285156 14.24560547 -0.12898438 15.32519531 -0.125 16.4375 C-0.12886719 17.51322266 -0.13273437 18.58894531 -0.13671875 19.69726562 C-0.13542969 20.72400391 -0.13414063 21.75074219 -0.1328125 22.80859375 C-0.13168457 23.75532959 -0.13055664 24.70206543 -0.12939453 25.67749023 C-0.15264716 28.02534473 -0.15264716 28.02534473 1 30 C1.04022391 32.3329866 1.04320247 34.66706666 1 37 C-4.88345718 30.58168307 -4.36374508 21.83719376 -4.265625 13.65234375 C-3.94110358 9.19017429 -3.33664744 3.33664744 0 0 Z " fill="#1F1D1D" transform="translate(90,176)"/>
<path d="M0 0 C0.66 0 1.32 0 2 0 C2.20496094 0.56589844 2.40992188 1.13179687 2.62109375 1.71484375 C2.89050781 2.44832031 3.15992188 3.18179688 3.4375 3.9375 C3.83775391 5.03384766 3.83775391 5.03384766 4.24609375 6.15234375 C4.85386948 7.98305678 4.85386948 7.98305678 6 9 C6.12742684 11.59595152 6.18521437 14.15352058 6.1875 16.75 C6.19974609 17.46671875 6.21199219 18.1834375 6.22460938 18.921875 C6.2360447 23.06908708 5.8557613 26.27380735 4 30 C3.34 30 2.68 30 2 30 C1.7834375 31.1446875 1.7834375 31.1446875 1.5625 32.3125 C1 35 1 35 0 38 C-0.66 38 -1.32 38 -2 38 C-2 38.66 -2 39.32 -2 40 C-2.99 39.67 -3.98 39.34 -5 39 C-4.4225 38.175 -3.845 37.35 -3.25 36.5 C-2.49687601 35.33534754 -1.74706375 34.16854904 -1 33 C-0.6184375 32.45472656 -0.236875 31.90945312 0.15625 31.34765625 C4.13218129 24.85836839 3.89189456 17.37620902 3 10 C2.03949757 7.98073402 1.04406499 5.97735386 0 4 C0 2.68 0 1.36 0 0 Z " fill="#1C1A1B" transform="translate(307,29)"/>
<path d="M0 0 C4.79129908 4.29011717 6.1023278 9.00469932 8 15 C8.22945312 15.67289063 8.45890625 16.34578125 8.6953125 17.0390625 C10.56702037 23.23415192 10.17588783 29.58986574 10 36 C9.01 36.495 9.01 36.495 8 37 C8 32.05 8 27.1 8 22 C7.34 22 6.68 22 6 22 C5.938125 20.88625 5.87625 19.7725 5.8125 18.625 C5.26272502 13.94358273 3.34698567 10.36800851 1.05859375 6.296875 C0 4 0 4 0 0 Z " fill="#252528" transform="translate(179,163)"/>
<path d="M0 0 C5.46438104 0.02404568 9.12639926 0.59961819 13.875 3.25 C13.875 3.58 13.875 3.91 13.875 4.25 C12.79400024 4.2185791 12.79400024 4.2185791 11.69116211 4.18652344 C8.39841894 4.10292845 5.1058997 4.05120222 1.8125 4 C0.67876953 3.96648438 -0.45496094 3.93296875 -1.62304688 3.8984375 C-8.38433962 3.81958861 -12.62729021 4.19653618 -18.125 8.25 C-17.9375 6.35546875 -17.9375 6.35546875 -17.125 4.25 C-14.875 3.23828125 -14.875 3.23828125 -12.125 2.5625 C-2.16305963 0.02956346 -2.16305963 0.02956346 0 0 Z " fill="#313134" transform="translate(280.125,12.75)"/>
<path d="M0 0 C0.66 0 1.32 0 2 0 C2.103125 0.639375 2.20625 1.27875 2.3125 1.9375 C2.539375 2.618125 2.76625 3.29875 3 4 C3.99 4.33 4.98 4.66 6 5 C7.70533217 8.32091002 8 10.18492784 8 14 C8.66 14 9.32 14 10 14 C12.27141454 19.39460953 12.20413361 24.26157749 12 30 C11.67 30 11.34 30 11 30 C10.89042969 29.33613281 10.78085938 28.67226562 10.66796875 27.98828125 C9.76732537 22.97250306 8.79791172 19.30447957 6 15 C4.57621092 11.70164692 3.29336436 8.35122748 2 5 C1.3353303 3.33253594 0.66922998 1.66563905 0 0 Z " fill="#141114" transform="translate(225,139)"/>
<path d="M0 0 C0 0.66 0 1.32 0 2 C-0.66 2 -1.32 2 -2 2 C-2 2.66 -2 3.32 -2 4 C-2.66 4 -3.32 4 -4 4 C-4 4.66 -4 5.32 -4 6 C-4.99 6 -5.98 6 -7 6 C-7 6.66 -7 7.32 -7 8 C-7.66 8 -8.32 8 -9 8 C-9 8.66 -9 9.32 -9 10 C-9.99 10 -10.98 10 -12 10 C-12 10.66 -12 11.32 -12 12 C-15 14 -15 14 -19 14 C-19 14.66 -19 15.32 -19 16 C-20.65 16 -22.3 16 -24 16 C-20.80903791 13.54189045 -17.49547067 11.32909914 -14.125 9.125 C-10.733557 6.88333889 -7.44867951 4.66284116 -4.375 2 C-2 0 -2 0 0 0 Z " fill="#151516" transform="translate(205,271)"/>
<path d="M0 0 C2.46170589 2.34125545 4.49335351 4.87131365 6.5625 7.5625 C10.96953096 13.13489111 15.88851179 18.07705029 21 23 C18 23 18 23 16 22 C16 21.34 16 20.68 16 20 C15.34 20 14.68 20 14 20 C14 19.34 14 18.68 14 18 C13.34 18 12.68 18 12 18 C12 17.34 12 16.68 12 16 C11.34 16 10.68 16 10 16 C10 15.34 10 14.68 10 14 C9.34 14 8.68 14 8 14 C8 13.34 8 12.68 8 12 C7.34 12 6.68 12 6 12 C5.896875 11.360625 5.79375 10.72125 5.6875 10.0625 C5.460625 9.381875 5.23375 8.70125 5 8 C4.01 7.67 3.02 7.34 2 7 C0.8125 3.4375 0.8125 3.4375 0 0 Z " fill="#0D0C0D" transform="translate(51,249)"/>
<path d="M0 0 C0.33 0.99 0.66 1.98 1 3 C-2.33333333 6.33333333 -5.66666667 9.66666667 -9 13 C-9.86625 13.9075 -10.7325 14.815 -11.625 15.75 C-14 18 -14 18 -17 19 C-17 19.66 -17 20.32 -17 21 C-18.32 20.67 -19.64 20.34 -21 20 C-20.41992188 19.57589844 -19.83984375 19.15179688 -19.2421875 18.71484375 C-14.75236834 15.34377491 -10.87828918 12.00720166 -7.34765625 7.640625 C-5.38798639 5.25493995 -3.21332974 3.15009175 -1 1 C-0.67 0.67 -0.34 0.34 0 0 Z " fill="#1D1D1E" transform="translate(275,96)"/>
<path d="M0 0 C0.66 0.33 1.32 0.66 2 1 C-8.15 13.10192308 -8.15 13.10192308 -15 16 C-14.34 14.68 -13.68 13.36 -13 12 C-12.34 12 -11.68 12 -11 12 C-11 11.34 -11 10.68 -11 10 C-10.34 10 -9.68 10 -9 10 C-9 9.34 -9 8.68 -9 8 C-8.34 8 -7.68 8 -7 8 C-7 7.34 -7 6.68 -7 6 C-6.34 6 -5.68 6 -5 6 C-5 5.34 -5 4.68 -5 4 C-4.34 4 -3.68 4 -3 4 C-3 3.34 -3 2.68 -3 2 C-2.01 1.34 -1.02 0.68 0 0 Z " fill="#707072" transform="translate(260,21)"/>
<path d="M0 0 C0.99 0.495 0.99 0.495 2 1 C2.30859375 3.22265625 2.30859375 3.22265625 2.4375 6.0625 C2.70073738 9.81607003 3.15245976 12.94534426 4.5625 16.4375 C6 20 6 20 6 24 C5.34 24 4.68 24 4 24 C0.45932086 15.65411346 -0.26727999 9.04297305 0 0 Z " fill="#101012" transform="translate(35,205)"/>
<path d="M0 0 C2.96846364 1.41035603 5.65489103 3.0329613 8.375 4.875 C11.06640281 6.69591609 13.76625538 8.49353606 16.5 10.25 C19 12 19 12 20 14 C19.01 14 18.02 14 17 14 C17 13.34 17 12.68 17 12 C16.4225 11.855625 15.845 11.71125 15.25 11.5625 C13.16666667 11.04166667 11.08333333 10.52083333 9 10 C9 9.34 9 8.68 9 8 C8.34 8 7.68 8 7 8 C7 7.34 7 6.68 7 6 C6.01 6 5.02 6 4 6 C1.8125 4.125 1.8125 4.125 0 2 C0 1.34 0 0.68 0 0 Z " fill="#1A1B1E" transform="translate(72,273)"/>
<path d="M0 0 C4.2021268 0.48486078 7.24515841 2.93726436 10 6 C11.375 9.3125 11.375 9.3125 12 12 C12.66 12 13.32 12 14 12 C14 12.66 14 13.32 14 14 C14.66 14 15.32 14 16 14 C15.67 15.32 15.34 16.64 15 18 C14.07767578 16.86111328 14.07767578 16.86111328 13.13671875 15.69921875 C12.32847656 14.70535156 11.52023438 13.71148437 10.6875 12.6875 C9.88699219 11.70136719 9.08648437 10.71523437 8.26171875 9.69921875 C6.15557856 7.08926152 6.15557856 7.08926152 4.20703125 5.26953125 C3 4 3 4 3 2 C2.01 1.67 1.02 1.34 0 1 C0 0.67 0 0.34 0 0 Z " fill="#1E1D20" transform="translate(205,115)"/>
<path d="M0 0 C-0.33 1.32 -0.66 2.64 -1 4 C-1.99 4 -2.98 4 -4 4 C-4.2784375 5.36125 -4.2784375 5.36125 -4.5625 6.75 C-6.55987157 11.26579659 -8.55590148 11.97286734 -13 14 C-13.99 14 -14.98 14 -16 14 C-13.71643754 11.65861457 -11.42186626 9.32833018 -9.125 7 C-8.47402344 6.33226563 -7.82304687 5.66453125 -7.15234375 4.9765625 C-6.52714844 4.34492187 -5.90195312 3.71328125 -5.2578125 3.0625 C-4.6817627 2.47597656 -4.10571289 1.88945313 -3.51220703 1.28515625 C-2 0 -2 0 0 0 Z " fill="#252425" transform="translate(303,69)"/>
<path d="M0 0 C4.9635134 0.46172218 7.32318399 1.68189775 11 5 C12.2688332 6.08567527 13.53974501 7.16892498 14.8125 8.25 C15.87570321 9.16585095 16.93844996 10.0822334 18 11 C17.01 11.33 16.02 11.66 15 12 C14.79375 11.38125 14.5875 10.7625 14.375 10.125 C13.1138767 7.6909061 13.1138767 7.6909061 10 7 C7 6 7 6 5.625 3.875 C5.41875 3.25625 5.2125 2.6375 5 2 C3.35 2 1.7 2 0 2 C0 1.34 0 0.68 0 0 Z " fill="#1A1B1B" transform="translate(156,145)"/>
<path d="M0 0 C0.66 0 1.32 0 2 0 C2.20496094 0.56589844 2.40992188 1.13179687 2.62109375 1.71484375 C2.89050781 2.44832031 3.15992188 3.18179688 3.4375 3.9375 C3.70433594 4.66839844 3.97117187 5.39929687 4.24609375 6.15234375 C4.85386948 7.98305678 4.85386948 7.98305678 6 9 C6.07271741 11.35313555 6.08370868 13.70833668 6.0625 16.0625 C6.05347656 17.35285156 6.04445313 18.64320312 6.03515625 19.97265625 C6.02355469 20.97167969 6.01195312 21.97070312 6 23 C5.67 23 5.34 23 5 23 C4.97421875 22.29875 4.9484375 21.5975 4.921875 20.875 C4.57561584 15.08302867 3.86809382 10.74351401 0.83984375 5.75390625 C0 4 0 4 0 0 Z " fill="#0D0C0E" transform="translate(307,29)"/>
<path d="M0 0 C0.99 0.33 1.98 0.66 3 1 C1.56547553 2.93976579 0.12753183 4.87682931 -1.3125 6.8125 C-1.71662109 7.35970703 -2.12074219 7.90691406 -2.53710938 8.47070312 C-4.54284347 11.16132204 -6.5291298 13.72104205 -9 16 C-8.38164467 11.98069037 -6.30133862 9.2876266 -4 6 C-3.24705755 4.8769672 -2.49693016 3.75204052 -1.75 2.625 C-1.1725 1.75875 -0.595 0.8925 0 0 Z " fill="#131114" transform="translate(60,121)"/>
<path d="M0 0 C1.65 0 3.3 0 5 0 C2.4696646 2.78765765 -0.39339801 4.67463495 -3.5625 6.6875 C-4.53316406 7.31011719 -5.50382812 7.93273437 -6.50390625 8.57421875 C-9 10 -9 10 -11 10 C-11 9.34 -11 8.68 -11 8 C-9.35 7.34 -7.7 6.68 -6 6 C-6 5.34 -6 4.68 -6 4 C-4.68 4 -3.36 4 -2 4 C-2 3.34 -2 2.68 -2 2 C-1.34 2 -0.68 2 0 2 C0 1.34 0 0.68 0 0 Z " fill="#141316" transform="translate(88,99)"/>
<path d="M0 0 C0.66 0.66 1.32 1.32 2 2 C1.9765625 4.6015625 1.9765625 4.6015625 1.625 7.625 C1.51414063 8.62789062 1.40328125 9.63078125 1.2890625 10.6640625 C1.19367188 11.43492187 1.09828125 12.20578125 1 13 C0.01 13.33 -0.98 13.66 -2 14 C-2.1799928 8.78020872 -1.97094808 4.92737019 0 0 Z " fill="#1D1C1B" transform="translate(238,209)"/>
<path d="M0 0 C0.66 0.33 1.32 0.66 2 1 C0.68 1.99 -0.64 2.98 -2 4 C-1.34 2.68 -0.68 1.36 0 0 Z M-5 4 C-4.01 4.33 -3.02 4.66 -2 5 C-4.97 7.97 -7.94 10.94 -11 14 C-11 10.36672806 -10.04413589 8.95264073 -8 6 C-7.01 5.34 -6.02 4.68 -5 4 Z " fill="#9E9C9D" transform="translate(73,111)"/>
<path d="M0 0 C6.25856383 -0.38317738 10.37311133 0.24172124 16 3 C17.32276056 3.37308631 18.65232077 3.73046415 20 4 C20 4.66 20 5.32 20 6 C16.5202979 5.57564608 13.79377162 4.91000943 10.5625 3.5 C6.96802217 1.98653565 3.86253963 1.3941367 0 1 C0 0.67 0 0.34 0 0 Z " fill="#181519" transform="translate(162,93)"/>
<path d="M0 0 C2.18092036 2.07858979 3.96390469 4.21856618 5.6875 6.6875 C6.12449219 7.31011719 6.56148437 7.93273437 7.01171875 8.57421875 C7.33785156 9.04472656 7.66398437 9.51523437 8 10 C7.01 10 6.02 10 5 10 C5 9.34 5 8.68 5 8 C4.01 7.67 3.02 7.34 2 7 C0.8125 3.4375 0.8125 3.4375 0 0 Z " fill="#111214" transform="translate(51,249)"/>
<path d="M0 0 C0.66 0 1.32 0 2 0 C3.31626692 3.61973402 4 6.09567131 4 10 C3.34 10 2.68 10 2 10 C0.39644899 6.49223216 -0.22036864 3.85645121 0 0 Z " fill="#1D1D20" transform="translate(37,219)"/>
<path d="M0 0 C0.66 0 1.32 0 2 0 C3.4783226 2.95664519 3.06032783 5.74229737 3 9 C0.90250005 6.64031256 0.03094296 5.45383006 -0.1875 2.25 C-0.125625 1.5075 -0.06375 0.765 0 0 Z " fill="#151214" transform="translate(88,204)"/>
<path d="M0 0 C0 0.66 0 1.32 0 2 C-1.65 2.66 -3.3 3.32 -5 4 C-5 4.66 -5 5.32 -5 6 C-6.32 5.67 -7.64 5.34 -9 5 C-7.87926138 4.16094435 -6.75325453 3.32892169 -5.625 2.5 C-4.99851562 2.0359375 -4.37203125 1.571875 -3.7265625 1.09375 C-2 0 -2 0 0 0 Z " fill="#0C0D0D" transform="translate(263,111)"/>
<path d="M0 0 C2.79872437 2.52788007 4.45773019 4.20411134 5 8 C3.0625 7.375 3.0625 7.375 1 6 C0.25 2.875 0.25 2.875 0 0 Z " fill="#222223" transform="translate(179,163)"/>
<path d="M0 0 C0.66 0.33 1.32 0.66 2 1 C0.1875 3.5 0.1875 3.5 -2 6 C-2.99 6 -3.98 6 -5 6 C-5 5.34 -5 4.68 -5 4 C-4.34 4 -3.68 4 -3 4 C-3 3.34 -3 2.68 -3 2 C-2.01 1.34 -1.02 0.68 0 0 Z " fill="#6A6A6B" transform="translate(172,229)"/>
<path d="M0 0 C0.6875 1.625 0.6875 1.625 1 4 C-0.4375 7.25 -0.4375 7.25 -2 10 C-3.60920937 6.78158126 -2.0749168 4.28446801 -1 1 C-0.67 0.67 -0.34 0.34 0 0 Z " fill="#0F0D0D" transform="translate(90,176)"/>
<path d="M0 0 C3.25543229 0.34879632 4.01873107 1.02133261 6.25 3.5625 C6.8275 4.366875 7.405 5.17125 8 6 C6.0625 5.6875 6.0625 5.6875 4 5 C3.67 4.01 3.34 3.02 3 2 C2.01 1.67 1.02 1.34 0 1 C0 0.67 0 0.34 0 0 Z " fill="#141215" transform="translate(205,115)"/>
</svg>
